<svg width="1200" height="800" viewBox="0 0 1200 800" fill="none" xmlns="http://www.w3.org/2000/svg">
  <defs>
    <linearGradient id="bg" x1="120" y1="80" x2="1080" y2="720" gradientUnits="userSpaceOnUse">
      <stop stop-color="#0B1F2A"/>
      <stop offset="1" stop-color="#163A45"/>
    </linearGradient>
    <linearGradient id="accent" x1="224" y1="184" x2="887" y2="588" gradientUnits="userSpaceOnUse">
      <stop stop-color="#F2994A"/>
      <stop offset="1" stop-color="#F2C94C"/>
    </linearGradient>
  </defs>
  <rect width="1200" height="800" rx="36" fill="url(#bg)"/>
  <circle cx="1022" cy="154" r="114" fill="#F2994A" fill-opacity="0.14"/>
  <circle cx="208" cy="654" r="156" fill="#56CCF2" fill-opacity="0.09"/>
  <rect x="144" y="120" width="912" height="560" rx="28" stroke="rgba(255,255,255,0.16)" stroke-width="2"/>
  <rect x="224" y="430" width="664" height="78" rx="16" fill="#DCE7EC"/>
  <rect x="294" y="314" width="512" height="100" rx="16" fill="#A6BBC7"/>
  <rect x="400" y="246" width="292" height="82" rx="14" fill="#E6EEF2"/>
  <rect x="544" y="246" width="44" height="164" rx="10" fill="url(#accent)"/>
  <rect x="320" y="520" width="76" height="88" rx="12" fill="#7D96A4"/>
  <rect x="720" y="520" width="76" height="88" rx="12" fill="#7D96A4"/>
  <path d="M260 208H470" stroke="#56CCF2" stroke-width="6" stroke-linecap="round" stroke-dasharray="16 18"/>
  <path d="M730 208H940" stroke="#56CCF2" stroke-width="6" stroke-linecap="round" stroke-dasharray="16 18"/>
  <text x="224" y="222" fill="#F4F7F8" font-family="Segoe UI, Arial, sans-serif" font-size="64" font-weight="700">E-CUT</text>
  <text x="224" y="290" fill="#D2DEE4" font-family="Segoe UI, Arial, sans-serif" font-size="34" font-weight="600">CNC Router de alta precision</text>
  <text x="224" y="628" fill="#F4F7F8" font-family="Segoe UI, Arial, sans-serif" font-size="28">Corte, grabado y mecanizado para produccion industrial</text>
</svg>
